<?xml version="1.0" encoding="UTF-8"?>
<svg width="90px" height="102px" viewBox="0 0 90 102" version="1.1" xmlns="http://www.w3.org/2000/svg" xmlns:xlink="http://www.w3.org/1999/xlink">
    <g id="Page-1" stroke="none" stroke-width="1" fill="none" fill-rule="evenodd">
        <g id="Group-4" fill="#1B9AAA">
            <path d="M83.41,21.69 L78.23,9.02 C80.65,9.87 82.63,11.73 83.65,14.2 C84.67,16.71 84.5,19.42 83.41,21.69 Z M79.82,28.69 C79.82,28.7 79.82,28.72 79.81,28.73 C79.64,29.14 79.31,29.46 78.81,29.67 C78.07,29.97 77.23,29.69 76.79,29.07 L76.78,29.06 C76.71,28.96 76.66,28.86 76.61,28.74 L68.44,8.75 C68.39,8.63 68.36,8.5 68.33,8.37 L68.33,8.36 C68.28,8.05 68.32,7.75 68.44,7.46 C68.62,7.04 68.94,6.72 69.45,6.51 C69.65,6.43 69.87,6.39 70.08,6.39 C70.33,6.39 70.57,6.44 70.78,6.54 C71.17,6.71 71.48,7.03 71.65,7.44 L79.82,27.43 C79.98,27.84 79.99,28.28 79.82,28.69 Z M28.36,42.73 L27.64,40.97 L24.92,34.31 L24.91,34.3 L24.13,32.38 L64.24,13.02 L70.62,28.63 L28.36,42.73 Z M52.25,61.04 L52.25,62.91 L45.53,62.91 L45.51,62.91 L38.81,62.91 L38.81,61.04 L52.25,61.04 Z M47.85,53.22 C47.85,54.5 46.81,55.54 45.53,55.54 C44.25,55.54 43.21,54.5 43.21,53.22 C43.21,52.52 43.53,51.88 44.03,51.46 C44.44,51.12 44.96,50.91 45.53,50.91 C46.1,50.91 46.62,51.12 47.03,51.46 C47.53,51.88 47.85,52.52 47.85,53.22 Z M14.18,43.49 L13.54,41.92 L20.86,38.93 L20.87,38.93 L21.51,40.5 L14.18,43.49 Z M10.01,48.36 C9.96,48.48 9.85,48.65 9.57,48.76 C9.27,48.89 8.84,48.84 8.66,48.38 L6.17,42.3 C6.08,42.08 6.12,41.89 6.17,41.77 C6.23,41.65 6.33,41.48 6.62,41.37 C6.7,41.33 6.79,41.31 6.88,41.31 C7.1,41.31 7.39,41.43 7.53,41.74 L7.53,41.75 L10.01,47.83 C10.1,48.05 10.06,48.24 10.01,48.36 Z M88.74,12.12 C86.47,6.58 81.15,2.99 75.16,2.97 C73.22,1.02 70.22,0.26 67.28,1.46 C65.51,2.18 64.12,3.56 63.37,5.33 C63.07,6.05 62.89,6.81 62.84,7.58 L19.41,28.55 C18.1,29.18 17.51,30.72 18.06,32.07 L18.78,33.84 L10.72,37.14 C9.05,35.82 6.73,35.38 4.47,36.3 C2.94,36.93 1.74,38.11 1.1,39.64 C0.46,41.17 0.45,42.85 1.08,44.38 L3.56,50.46 C4.52,52.8 6.77,54.32 9.3,54.32 C10.11,54.32 10.9,54.16 11.71,53.83 C13.24,53.2 14.44,52.02 15.08,50.49 C15.3,49.97 15.44,49.43 15.51,48.89 L23.59,45.59 L24.24,47.19 C24.67,48.25 25.7,48.91 26.79,48.91 C27.07,48.91 27.37,48.86 27.66,48.76 L42.78,43.72 L42.78,45.92 C39.82,47.02 37.71,49.88 37.71,53.22 C37.71,54.03 37.83,54.81 38.06,55.54 L36.06,55.54 C34.54,55.54 33.31,56.77 33.31,58.29 L33.31,65.66 C33.31,67.18 34.54,68.41 36.06,68.41 L41.26,68.41 L27.26,97.69 C26.61,99.06 27.19,100.7 28.56,101.36 C28.94,101.54 29.34,101.63 29.74,101.63 C30.77,101.63 31.75,101.05 32.22,100.06 L42.78,77.98 L42.78,98.68 C42.78,100.2 44.01,101.43 45.53,101.43 C47.05,101.43 48.28,100.2 48.28,98.68 L48.28,77.79 L58.84,99.87 C59.31,100.86 60.29,101.43 61.32,101.43 C61.72,101.43 62.12,101.35 62.5,101.17 C63.87,100.51 64.45,98.87 63.8,97.5 L49.89,68.41 L55,68.41 C56.52,68.41 57.75,67.18 57.75,65.66 L57.75,58.29 C57.75,56.77 56.52,55.54 55,55.54 L53,55.54 C53.23,54.81 53.35,54.03 53.35,53.22 C53.35,49.88 51.24,47.02 48.28,45.92 L48.28,41.88 L73.41,33.5 C74.7,34.64 76.37,35.3 78.17,35.3 C79.1,35.3 80.02,35.12 80.97,34.73 C82.75,34 84.14,32.63 84.88,30.86 C85.25,29.99 85.43,29.09 85.44,28.18 C89.56,24.12 91.06,17.81 88.74,12.12 L88.74,12.12 Z" id="Fill-26"></path>
        </g>
    </g>
</svg>