<?xml version="1.0" encoding="UTF-8"?>
<svg width="89px" height="85px" viewBox="0 0 89 85" version="1.1" xmlns="http://www.w3.org/2000/svg" xmlns:xlink="http://www.w3.org/1999/xlink">
    <g id="Page-1" stroke="none" stroke-width="1" fill="none" fill-rule="evenodd">
        <g id="icon" fill="#1B9AAA">
            <path d="M72.823,32.298 L64.393,23.268 C64.373,23.248 64.363,23.228 64.343,23.208 C63.993,22.808 63.813,22.298 63.833,21.758 C63.853,21.198 64.093,20.678 64.503,20.298 L71.333,13.928 C71.403,13.858 71.493,13.828 71.583,13.828 C71.663,13.828 71.763,13.848 71.853,13.948 L82.643,25.508 C82.713,25.578 82.743,25.668 82.743,25.768 C82.733,25.838 82.713,25.948 82.623,26.028 L75.793,32.398 C74.973,33.168 73.583,33.118 72.823,32.298 Z M75.263,64.488 L75.263,67.688 C75.263,68.938 74.243,69.948 73.003,69.948 L14.593,69.948 C13.343,69.948 12.333,68.938 12.333,67.688 L12.333,64.488 C12.333,63.248 13.343,62.228 14.593,62.228 L73.003,62.228 C74.243,62.228 75.263,63.248 75.263,64.488 Z M17.503,78.998 L71.093,78.998 L71.093,75.448 L17.503,75.448 L17.503,78.998 Z M17.503,50.018 C17.503,35.398 29.393,23.518 44.003,23.518 L44.593,23.518 C48.873,23.518 52.913,24.538 56.483,26.348 L53.333,29.288 C51.443,28.408 49.393,27.758 47.223,27.378 C45.713,27.108 44.293,28.108 44.033,29.608 C43.763,31.098 44.763,32.528 46.263,32.788 C50.063,33.458 53.323,35.118 55.873,37.588 C56.363,38.048 56.833,38.548 57.263,39.078 C59.583,41.878 61.123,45.458 61.723,49.628 C61.923,50.998 63.093,51.988 64.443,51.988 C64.573,51.988 64.703,51.978 64.833,51.958 C66.343,51.738 67.383,50.348 67.163,48.848 C66.883,46.858 66.413,44.958 65.763,43.178 L69.133,40.038 C70.403,43.118 71.093,46.488 71.093,50.018 L71.093,56.728 L17.503,56.728 L17.503,50.018 Z M61.253,29.428 L61.983,28.748 L67.193,34.328 L66.433,35.028 L63.533,37.738 L60.953,34.968 C60.623,34.588 60.283,34.228 59.923,33.878 L58.323,32.158 L61.253,29.428 Z M61.103,22.298 C61.113,22.408 61.133,22.518 61.153,22.638 C61.043,22.568 60.923,22.508 60.813,22.438 C60.903,22.388 61.003,22.338 61.103,22.298 Z M88.233,25.958 C88.293,24.398 87.733,22.898 86.663,21.758 L75.883,10.198 C74.773,9.008 73.203,8.328 71.583,8.328 C70.093,8.328 68.673,8.888 67.583,9.908 L60.753,16.278 C59.373,17.558 58.533,19.268 58.363,21.138 C54.193,19.138 49.523,18.018 44.593,18.018 L44.003,18.018 C26.363,18.018 12.003,32.368 12.003,50.018 L12.003,57.168 C8.993,58.238 6.833,61.118 6.833,64.488 L6.833,67.688 C6.833,71.058 8.993,73.938 12.003,75.008 L12.003,81.748 C12.003,83.268 13.243,84.498 14.753,84.498 L73.843,84.498 C75.363,84.498 76.593,83.268 76.593,81.748 L76.593,74.568 C79.073,73.268 80.763,70.678 80.763,67.688 L80.763,64.488 C80.763,61.498 79.073,58.908 76.593,57.618 L76.593,50.018 C76.593,45.948 75.833,42.048 74.443,38.468 C76.353,38.448 78.153,37.718 79.543,36.428 L86.373,30.048 C87.523,28.978 88.183,27.528 88.233,25.958 Z" id="Fill-30"></path>
            <path d="M54.583,8.028 C53.783,8.818 52.753,9.248 51.653,9.248 C50.543,9.248 49.513,8.818 48.733,8.038 C47.103,6.418 47.103,3.798 48.713,2.188 C49.513,1.388 50.543,0.958 51.653,0.958 C52.753,0.958 53.783,1.388 54.563,2.168 C56.193,3.798 56.193,6.418 54.583,8.028" id="Fill-31"></path>
            <path d="M7.363,40.028 C6.563,40.828 5.523,41.258 4.423,41.258 C3.323,41.258 2.283,40.828 1.503,40.048 C-0.117,38.418 -0.117,35.808 1.483,34.198 C2.283,33.398 3.323,32.968 4.423,32.968 C5.523,32.968 6.563,33.398 7.343,34.178 C8.963,35.808 8.963,38.418 7.363,40.028" id="Fill-32"></path>
            <path d="M18.983,8.678 C18.103,9.558 16.973,10.018 15.763,10.018 C14.563,10.018 13.433,9.558 12.583,8.698 C11.703,7.828 11.233,6.698 11.233,5.488 C11.233,4.288 11.703,3.158 12.553,2.308 C13.433,1.428 14.563,0.958 15.763,0.958 C16.973,0.958 18.103,1.428 18.953,2.278 C20.733,4.068 20.733,6.918 18.983,8.678" id="Fill-33"></path>
        </g>
    </g>
</svg>